<svg xmlns="http://www.w3.org/2000/svg" xmlns:xlink="http://www.w3.org/1999/xlink" width="334" zoomAndPan="magnify" viewBox="0 0 250.5 71.249999" height="95" preserveAspectRatio="xMidYMid meet" version="1.0"><defs><g/><clipPath id="e2abefc991"><path d="M 137.140625 52.558594 L 228.183594 52.558594 L 228.183594 68.390625 L 137.140625 68.390625 Z M 137.140625 52.558594 " clip-rule="nonzero"/></clipPath><clipPath id="82b14c2e52"><path d="M 2.511719 0 L 60.195312 0 L 60.195312 49.855469 L 2.511719 49.855469 Z M 2.511719 0 " clip-rule="nonzero"/></clipPath><clipPath id="1b465a2f96"><path d="M 1.058594 29.441406 L 64.695312 29.441406 L 64.695312 53.757812 L 1.058594 53.757812 Z M 1.058594 29.441406 " clip-rule="nonzero"/></clipPath><clipPath id="c8d8f59d83"><path d="M 2.511719 8.140625 L 59.785156 8.140625 L 59.785156 58 L 2.511719 58 Z M 2.511719 8.140625 " clip-rule="nonzero"/></clipPath><clipPath id="6818092c23"><path d="M 2.511719 26.3125 L 24.628906 26.3125 L 24.628906 36.328125 L 2.511719 36.328125 Z M 2.511719 26.3125 " clip-rule="nonzero"/></clipPath></defs><g clip-path="url(#e2abefc991)"><path fill="#000000" d="M 137.140625 52.558594 L 228.171875 52.558594 L 228.171875 68.390625 L 137.140625 68.390625 Z M 137.140625 52.558594 " fill-opacity="1" fill-rule="nonzero"/></g><g clip-path="url(#82b14c2e52)"><path fill="#ffffff" d="M 60.007812 49.726562 L 2.589844 49.726562 L 2.714844 49.511719 L 31.296875 0 Z M 3.089844 49.4375 L 59.507812 49.4375 L 31.296875 0.578125 Z M 3.089844 49.4375 " fill-opacity="1" fill-rule="nonzero"/></g><g clip-path="url(#1b465a2f96)"><path fill="#000000" d="M 1.058594 29.441406 L 64.703125 29.441406 L 64.703125 53.757812 L 1.058594 53.757812 Z M 1.058594 29.441406 " fill-opacity="1" fill-rule="nonzero"/></g><g clip-path="url(#c8d8f59d83)"><path fill="#ffffff" d="M 59.785156 57.992188 L 2.511719 57.992188 L 31.148438 8.148438 Z M 5.15625 56.460938 L 57.136719 56.460938 L 31.148438 11.222656 Z M 5.15625 56.460938 " fill-opacity="1" fill-rule="nonzero"/></g><g clip-path="url(#6818092c23)"><path fill="#000000" d="M 2.511719 26.3125 L 24.617188 26.3125 L 24.617188 36.328125 L 2.511719 36.328125 Z M 2.511719 26.3125 " fill-opacity="1" fill-rule="nonzero"/></g><g fill="#ffffff" fill-opacity="1"><g transform="translate(23.455877, 52.872404)"><g><path d="M 11.96875 -14.875 C 11.320312 -15.226562 10.628906 -15.515625 9.890625 -15.734375 C 9.160156 -15.953125 8.46875 -16.0625 7.8125 -16.0625 C 6.832031 -16.0625 6.050781 -15.835938 5.46875 -15.390625 C 4.894531 -14.953125 4.609375 -14.347656 4.609375 -13.578125 C 4.609375 -12.828125 4.945312 -12.210938 5.625 -11.734375 C 6.300781 -11.253906 7.265625 -10.78125 8.515625 -10.3125 C 9.453125 -9.976562 10.238281 -9.613281 10.875 -9.21875 C 11.519531 -8.832031 12.054688 -8.289062 12.484375 -7.59375 C 12.910156 -6.90625 13.125 -6.023438 13.125 -4.953125 C 13.125 -3.984375 12.878906 -3.109375 12.390625 -2.328125 C 11.910156 -1.546875 11.222656 -0.925781 10.328125 -0.46875 C 9.429688 -0.0195312 8.382812 0.203125 7.1875 0.203125 C 6.070312 0.203125 4.992188 0.0234375 3.953125 -0.328125 C 2.921875 -0.691406 2.015625 -1.148438 1.234375 -1.703125 L 2.296875 -3.625 C 2.921875 -3.164062 3.664062 -2.769531 4.53125 -2.4375 C 5.394531 -2.113281 6.207031 -1.953125 6.96875 -1.953125 C 7.9375 -1.953125 8.78125 -2.203125 9.5 -2.703125 C 10.226562 -3.203125 10.59375 -3.945312 10.59375 -4.9375 C 10.59375 -5.769531 10.285156 -6.429688 9.671875 -6.921875 C 9.066406 -7.421875 8.210938 -7.882812 7.109375 -8.3125 C 6.085938 -8.695312 5.238281 -9.070312 4.5625 -9.4375 C 3.894531 -9.8125 3.316406 -10.316406 2.828125 -10.953125 C 2.347656 -11.597656 2.109375 -12.40625 2.109375 -13.375 C 2.109375 -14.789062 2.601562 -15.9375 3.59375 -16.8125 C 4.582031 -17.695312 5.875 -18.160156 7.46875 -18.203125 C 9.414062 -18.203125 11.226562 -17.71875 12.90625 -16.75 Z M 11.96875 -14.875 "/></g></g></g><g fill="#ffffff" fill-opacity="1"><g transform="translate(58.068274, 52.872404)"><g><path d="M 4.8125 -6.40625 C 4.8125 -5.601562 5.003906 -4.878906 5.390625 -4.234375 C 5.773438 -3.597656 6.296875 -3.09375 6.953125 -2.71875 C 7.609375 -2.34375 8.335938 -2.15625 9.140625 -2.15625 C 9.972656 -2.15625 10.726562 -2.335938 11.40625 -2.703125 C 12.082031 -3.066406 12.613281 -3.570312 13 -4.21875 C 13.382812 -4.875 13.578125 -5.601562 13.578125 -6.40625 L 13.578125 -18.109375 L 15.953125 -18.109375 L 15.953125 -6.34375 C 15.953125 -5.050781 15.648438 -3.90625 15.046875 -2.90625 C 14.453125 -1.914062 13.632812 -1.148438 12.59375 -0.609375 C 11.5625 -0.0664062 10.410156 0.203125 9.140625 0.203125 C 7.890625 0.203125 6.742188 -0.0664062 5.703125 -0.609375 C 4.671875 -1.148438 3.859375 -1.914062 3.265625 -2.90625 C 2.671875 -3.90625 2.375 -5.050781 2.375 -6.34375 L 2.375 -18.109375 L 4.8125 -18.109375 Z M 4.8125 -6.40625 "/></g></g></g><g fill="#ffffff" fill-opacity="1"><g transform="translate(96.437441, 52.872404)"><g><path d="M 13.296875 -18.109375 L 13.296875 -15.78125 L 8.4375 -15.78125 L 8.4375 0 L 6.015625 0 L 6.015625 -15.78125 L 1.28125 -15.78125 L 1.28125 -18.109375 Z M 13.296875 -18.109375 "/></g></g></g><g fill="#ffffff" fill-opacity="1"><g transform="translate(131.049832, 52.872404)"><g><path d="M 13.296875 -18.109375 L 13.296875 -15.78125 L 8.4375 -15.78125 L 8.4375 0 L 6.015625 0 L 6.015625 -15.78125 L 1.28125 -15.78125 L 1.28125 -18.109375 Z M 13.296875 -18.109375 "/></g></g></g><g fill="#ffffff" fill-opacity="1"><g transform="translate(165.662223, 52.872404)"><g><path d="M 1.484375 -9.046875 C 1.484375 -10.691406 1.898438 -12.222656 2.734375 -13.640625 C 3.566406 -15.066406 4.6875 -16.203125 6.09375 -17.046875 C 7.507812 -17.890625 9.050781 -18.3125 10.71875 -18.3125 C 12.375 -18.3125 13.910156 -17.890625 15.328125 -17.046875 C 16.742188 -16.203125 17.875 -15.066406 18.71875 -13.640625 C 19.5625 -12.222656 19.984375 -10.691406 19.984375 -9.046875 C 19.984375 -7.367188 19.566406 -5.820312 18.734375 -4.40625 C 17.898438 -2.988281 16.769531 -1.863281 15.34375 -1.03125 C 13.914062 -0.207031 12.375 0.203125 10.71875 0.203125 C 9.050781 0.203125 7.503906 -0.203125 6.078125 -1.015625 C 4.660156 -1.835938 3.539062 -2.953125 2.71875 -4.359375 C 1.894531 -5.773438 1.484375 -7.335938 1.484375 -9.046875 Z M 3.984375 -9.015625 C 3.984375 -7.773438 4.28125 -6.628906 4.875 -5.578125 C 5.476562 -4.523438 6.300781 -3.691406 7.34375 -3.078125 C 8.394531 -2.460938 9.535156 -2.15625 10.765625 -2.15625 C 12.003906 -2.15625 13.132812 -2.457031 14.15625 -3.0625 C 15.1875 -3.675781 16 -4.507812 16.59375 -5.5625 C 17.1875 -6.625 17.484375 -7.785156 17.484375 -9.046875 C 17.484375 -10.296875 17.179688 -11.453125 16.578125 -12.515625 C 15.972656 -13.585938 15.15625 -14.429688 14.125 -15.046875 C 13.09375 -15.671875 11.957031 -15.984375 10.71875 -15.984375 C 9.476562 -15.984375 8.34375 -15.664062 7.3125 -15.03125 C 6.28125 -14.40625 5.46875 -13.554688 4.875 -12.484375 C 4.28125 -11.421875 3.984375 -10.265625 3.984375 -9.015625 Z M 3.984375 -9.015625 "/></g></g></g><g fill="#ffffff" fill-opacity="1"><g transform="translate(207.162038, 52.872404)"><g><path d="M 18.390625 -18.109375 L 18.390625 0.59375 L 18.3125 0.59375 L 5.015625 -12.90625 L 5.0625 0 L 2.609375 0 L 2.609375 -18.65625 L 2.734375 -18.65625 L 16 -5.015625 L 15.953125 -18.109375 Z M 18.390625 -18.109375 "/></g></g></g><g fill="#ffffff" fill-opacity="1"><g transform="translate(137.208824, 62.844649)"><g><path d="M 1.21875 -4.390625 L 1.21875 0 L 0.625 0 L 0.625 -4.390625 Z M 1.21875 -4.390625 "/></g></g></g><g fill="#ffffff" fill-opacity="1"><g transform="translate(141.493862, 62.844649)"><g><path d="M 4.46875 -4.390625 L 4.46875 0.140625 L 4.4375 0.140625 L 1.21875 -3.125 L 1.234375 0 L 0.625 0 L 0.625 -4.53125 L 0.65625 -4.53125 L 3.890625 -1.21875 L 3.875 -4.390625 Z M 4.46875 -4.390625 "/></g></g></g><g fill="#ffffff" fill-opacity="1"><g transform="translate(149.018532, 62.844649)"><g><path d="M 3.234375 -4.390625 L 3.234375 -3.828125 L 2.046875 -3.828125 L 2.046875 0 L 1.453125 0 L 1.453125 -3.828125 L 0.3125 -3.828125 L 0.3125 -4.390625 Z M 3.234375 -4.390625 "/></g></g></g><g fill="#ffffff" fill-opacity="1"><g transform="translate(154.98721, 62.844649)"><g><path d="M 3.484375 -4.390625 L 3.484375 -3.828125 L 1.21875 -3.828125 L 1.21875 -2.484375 L 3.25 -2.484375 L 3.25 -1.921875 L 1.21875 -1.921875 L 1.21875 -0.578125 L 3.578125 -0.578125 L 3.578125 0 L 0.625 0 L 0.625 -4.390625 Z M 3.484375 -4.390625 "/></g></g></g><g fill="#ffffff" fill-opacity="1"><g transform="translate(161.387432, 62.844649)"><g><path d="M 3.046875 0 L 2.015625 -1.625 C 1.984375 -1.613281 1.9375 -1.609375 1.875 -1.609375 L 1.21875 -1.609375 L 1.21875 0 L 0.625 0 L 0.625 -4.390625 L 1.8125 -4.390625 C 2.101562 -4.390625 2.363281 -4.335938 2.59375 -4.234375 C 2.832031 -4.128906 3.019531 -3.972656 3.15625 -3.765625 C 3.289062 -3.566406 3.359375 -3.320312 3.359375 -3.03125 C 3.359375 -2.757812 3.296875 -2.507812 3.171875 -2.28125 C 3.054688 -2.050781 2.875 -1.878906 2.625 -1.765625 L 3.734375 0 Z M 1.859375 -2.1875 C 2.171875 -2.1875 2.394531 -2.269531 2.53125 -2.4375 C 2.675781 -2.601562 2.75 -2.796875 2.75 -3.015625 C 2.75 -3.140625 2.71875 -3.265625 2.65625 -3.390625 C 2.601562 -3.515625 2.507812 -3.617188 2.375 -3.703125 C 2.25 -3.785156 2.09375 -3.828125 1.90625 -3.828125 L 1.21875 -3.828125 L 1.21875 -2.1875 Z M 1.859375 -2.1875 "/></g></g></g><g fill="#ffffff" fill-opacity="1"><g transform="translate(167.830199, 62.844649)"><g><path d="M 1.21875 -4.390625 L 1.21875 0 L 0.625 0 L 0.625 -4.390625 Z M 1.21875 -4.390625 "/></g></g></g><g fill="#ffffff" fill-opacity="1"><g transform="translate(172.115239, 62.844649)"><g><path d="M 0.359375 -2.1875 C 0.359375 -2.59375 0.457031 -2.96875 0.65625 -3.3125 C 0.863281 -3.65625 1.140625 -3.925781 1.484375 -4.125 C 1.828125 -4.332031 2.195312 -4.4375 2.59375 -4.4375 C 3 -4.4375 3.375 -4.332031 3.71875 -4.125 C 4.0625 -3.925781 4.332031 -3.65625 4.53125 -3.3125 C 4.738281 -2.96875 4.84375 -2.59375 4.84375 -2.1875 C 4.84375 -1.789062 4.742188 -1.414062 4.546875 -1.0625 C 4.347656 -0.71875 4.070312 -0.445312 3.71875 -0.25 C 3.375 -0.0507812 3 0.046875 2.59375 0.046875 C 2.195312 0.046875 1.820312 -0.0507812 1.46875 -0.25 C 1.125 -0.445312 0.851562 -0.71875 0.65625 -1.0625 C 0.457031 -1.40625 0.359375 -1.78125 0.359375 -2.1875 Z M 0.96875 -2.1875 C 0.96875 -1.882812 1.039062 -1.601562 1.1875 -1.34375 C 1.332031 -1.09375 1.53125 -0.890625 1.78125 -0.734375 C 2.03125 -0.585938 2.304688 -0.515625 2.609375 -0.515625 C 2.910156 -0.515625 3.1875 -0.585938 3.4375 -0.734375 C 3.6875 -0.890625 3.882812 -1.09375 4.03125 -1.34375 C 4.175781 -1.601562 4.25 -1.882812 4.25 -2.1875 C 4.25 -2.5 4.175781 -2.78125 4.03125 -3.03125 C 3.882812 -3.289062 3.679688 -3.492188 3.421875 -3.640625 C 3.171875 -3.796875 2.894531 -3.875 2.59375 -3.875 C 2.300781 -3.875 2.023438 -3.796875 1.765625 -3.640625 C 1.515625 -3.492188 1.316406 -3.289062 1.171875 -3.03125 C 1.035156 -2.769531 0.96875 -2.488281 0.96875 -2.1875 Z M 0.96875 -2.1875 "/></g></g></g><g fill="#ffffff" fill-opacity="1"><g transform="translate(179.755392, 62.844649)"><g><path d="M 3.046875 0 L 2.015625 -1.625 C 1.984375 -1.613281 1.9375 -1.609375 1.875 -1.609375 L 1.21875 -1.609375 L 1.21875 0 L 0.625 0 L 0.625 -4.390625 L 1.8125 -4.390625 C 2.101562 -4.390625 2.363281 -4.335938 2.59375 -4.234375 C 2.832031 -4.128906 3.019531 -3.972656 3.15625 -3.765625 C 3.289062 -3.566406 3.359375 -3.320312 3.359375 -3.03125 C 3.359375 -2.757812 3.296875 -2.507812 3.171875 -2.28125 C 3.054688 -2.050781 2.875 -1.878906 2.625 -1.765625 L 3.734375 0 Z M 1.859375 -2.1875 C 2.171875 -2.1875 2.394531 -2.269531 2.53125 -2.4375 C 2.675781 -2.601562 2.75 -2.796875 2.75 -3.015625 C 2.75 -3.140625 2.71875 -3.265625 2.65625 -3.390625 C 2.601562 -3.515625 2.507812 -3.617188 2.375 -3.703125 C 2.25 -3.785156 2.09375 -3.828125 1.90625 -3.828125 L 1.21875 -3.828125 L 1.21875 -2.1875 Z M 1.859375 -2.1875 "/></g></g></g><g fill="#ffffff" fill-opacity="1"><g transform="translate(186.198162, 62.844649)"><g/></g></g><g fill="#ffffff" fill-opacity="1"><g transform="translate(190.550062, 62.844649)"><g><path d="M 0.625 -4.390625 L 1.828125 -4.390625 C 2.378906 -4.390625 2.832031 -4.28125 3.1875 -4.0625 C 3.550781 -3.851562 3.8125 -3.578125 3.96875 -3.234375 C 4.132812 -2.890625 4.21875 -2.523438 4.21875 -2.140625 C 4.21875 -1.710938 4.117188 -1.335938 3.921875 -1.015625 C 3.722656 -0.691406 3.457031 -0.441406 3.125 -0.265625 C 2.789062 -0.0859375 2.429688 0 2.046875 0 L 0.625 0 Z M 1.9375 -0.578125 C 2.257812 -0.578125 2.546875 -0.640625 2.796875 -0.765625 C 3.054688 -0.890625 3.253906 -1.070312 3.390625 -1.3125 C 3.535156 -1.5625 3.609375 -1.851562 3.609375 -2.1875 C 3.609375 -2.53125 3.535156 -2.828125 3.390625 -3.078125 C 3.242188 -3.328125 3.046875 -3.515625 2.796875 -3.640625 C 2.546875 -3.765625 2.273438 -3.828125 1.984375 -3.828125 L 1.21875 -3.828125 L 1.21875 -0.578125 Z M 1.9375 -0.578125 "/></g></g></g><g fill="#ffffff" fill-opacity="1"><g transform="translate(197.564172, 62.844649)"><g><path d="M 3.484375 -4.390625 L 3.484375 -3.828125 L 1.21875 -3.828125 L 1.21875 -2.484375 L 3.25 -2.484375 L 3.25 -1.921875 L 1.21875 -1.921875 L 1.21875 -0.578125 L 3.578125 -0.578125 L 3.578125 0 L 0.625 0 L 0.625 -4.390625 Z M 3.484375 -4.390625 "/></g></g></g><g fill="#ffffff" fill-opacity="1"><g transform="translate(203.964395, 62.844649)"><g><path d="M 2.90625 -3.609375 C 2.75 -3.691406 2.582031 -3.757812 2.40625 -3.8125 C 2.226562 -3.863281 2.054688 -3.890625 1.890625 -3.890625 C 1.648438 -3.890625 1.460938 -3.835938 1.328125 -3.734375 C 1.191406 -3.628906 1.125 -3.484375 1.125 -3.296875 C 1.125 -3.109375 1.203125 -2.957031 1.359375 -2.84375 C 1.523438 -2.726562 1.757812 -2.613281 2.0625 -2.5 C 2.289062 -2.414062 2.484375 -2.328125 2.640625 -2.234375 C 2.796875 -2.140625 2.925781 -2.007812 3.03125 -1.84375 C 3.132812 -1.675781 3.1875 -1.460938 3.1875 -1.203125 C 3.1875 -0.960938 3.125 -0.75 3 -0.5625 C 2.882812 -0.375 2.71875 -0.222656 2.5 -0.109375 C 2.289062 -0.00390625 2.039062 0.046875 1.75 0.046875 C 1.476562 0.046875 1.210938 0.00390625 0.953125 -0.078125 C 0.703125 -0.171875 0.484375 -0.28125 0.296875 -0.40625 L 0.5625 -0.875 C 0.707031 -0.769531 0.882812 -0.675781 1.09375 -0.59375 C 1.3125 -0.507812 1.507812 -0.46875 1.6875 -0.46875 C 1.925781 -0.46875 2.132812 -0.53125 2.3125 -0.65625 C 2.488281 -0.78125 2.578125 -0.960938 2.578125 -1.203125 C 2.578125 -1.398438 2.5 -1.554688 2.34375 -1.671875 C 2.195312 -1.796875 1.988281 -1.910156 1.71875 -2.015625 C 1.476562 -2.109375 1.273438 -2.195312 1.109375 -2.28125 C 0.941406 -2.375 0.800781 -2.5 0.6875 -2.65625 C 0.570312 -2.8125 0.515625 -3.007812 0.515625 -3.25 C 0.515625 -3.59375 0.632812 -3.867188 0.875 -4.078125 C 1.113281 -4.296875 1.425781 -4.410156 1.8125 -4.421875 C 2.28125 -4.421875 2.71875 -4.300781 3.125 -4.0625 Z M 2.90625 -3.609375 "/></g></g></g><g fill="#ffffff" fill-opacity="1"><g transform="translate(209.933074, 62.844649)"><g><path d="M 1.21875 -4.390625 L 1.21875 0 L 0.625 0 L 0.625 -4.390625 Z M 1.21875 -4.390625 "/></g></g></g><g fill="#ffffff" fill-opacity="1"><g transform="translate(214.218114, 62.844649)"><g><path d="M 4.078125 -0.375 C 3.941406 -0.269531 3.726562 -0.171875 3.4375 -0.078125 C 3.15625 0.00390625 2.894531 0.046875 2.65625 0.046875 C 2.195312 0.046875 1.789062 -0.046875 1.4375 -0.234375 C 1.09375 -0.421875 0.828125 -0.675781 0.640625 -1 C 0.453125 -1.332031 0.359375 -1.703125 0.359375 -2.109375 C 0.359375 -2.585938 0.457031 -3.003906 0.65625 -3.359375 C 0.863281 -3.710938 1.140625 -3.976562 1.484375 -4.15625 C 1.828125 -4.34375 2.203125 -4.4375 2.609375 -4.4375 C 2.859375 -4.4375 3.09375 -4.40625 3.3125 -4.34375 C 3.53125 -4.289062 3.726562 -4.21875 3.90625 -4.125 L 3.703125 -3.578125 C 3.578125 -3.648438 3.414062 -3.710938 3.21875 -3.765625 C 3.019531 -3.828125 2.84375 -3.859375 2.6875 -3.859375 C 2.34375 -3.859375 2.039062 -3.785156 1.78125 -3.640625 C 1.519531 -3.503906 1.316406 -3.304688 1.171875 -3.046875 C 1.035156 -2.796875 0.96875 -2.5 0.96875 -2.15625 C 0.96875 -1.84375 1.035156 -1.5625 1.171875 -1.3125 C 1.316406 -1.070312 1.519531 -0.882812 1.78125 -0.75 C 2.039062 -0.613281 2.335938 -0.546875 2.671875 -0.546875 C 2.828125 -0.546875 2.976562 -0.554688 3.125 -0.578125 C 3.269531 -0.609375 3.390625 -0.65625 3.484375 -0.71875 L 3.484375 -1.59375 L 2.609375 -1.59375 L 2.609375 -2.15625 L 4.078125 -2.15625 Z M 4.078125 -0.375 "/></g></g></g><g fill="#ffffff" fill-opacity="1"><g transform="translate(221.220066, 62.844649)"><g><path d="M 4.46875 -4.390625 L 4.46875 0.140625 L 4.4375 0.140625 L 1.21875 -3.125 L 1.234375 0 L 0.625 0 L 0.625 -4.53125 L 0.65625 -4.53125 L 3.890625 -1.21875 L 3.875 -4.390625 Z M 4.46875 -4.390625 "/></g></g></g></svg>