<svg xmlns="http://www.w3.org/2000/svg" xmlns:xlink="http://www.w3.org/1999/xlink" width="940" zoomAndPan="magnify" viewBox="0 0 705 591.000005" height="788" preserveAspectRatio="xMidYMid meet" version="1.0"><defs><g/><clipPath id="e3bc19c47d"><path d="M 0.59375 0 L 704.402344 0 L 704.402344 590 L 0.59375 590 Z M 0.59375 0 " clip-rule="nonzero"/></clipPath></defs><g clip-path="url(#e3bc19c47d)"><path fill="#ffffff" d="M 0.59375 0 L 704.40625 0 L 704.40625 590 L 0.59375 590 Z M 0.59375 0 " fill-opacity="1" fill-rule="nonzero"/><path fill="#ffffff" d="M 0.59375 0 L 704.40625 0 L 704.40625 590 L 0.59375 590 Z M 0.59375 0 " fill-opacity="1" fill-rule="nonzero"/></g><g fill="#000000" fill-opacity="1"><g transform="translate(240.643489, 263.795282)"><g><path d="M 33.75 -44.1875 L 33.75 -36.875 L 14.46875 -36.875 L 14.46875 -25.171875 L 31.96875 -25.171875 L 31.96875 -17.953125 L 14.46875 -17.953125 L 14.46875 0 L 5.734375 0 L 5.734375 -44.1875 Z M 33.75 -44.1875 "/></g></g></g><g fill="#000000" fill-opacity="1"><g transform="translate(276.361745, 263.795282)"><g><path d="M 24.078125 0.640625 C 20.035156 0.640625 16.46875 -0.1875 13.375 -1.84375 C 10.28125 -3.5 7.851562 -6.019531 6.09375 -9.40625 C 4.34375 -12.800781 3.46875 -17.03125 3.46875 -22.09375 C 3.46875 -27.144531 4.34375 -31.367188 6.09375 -34.765625 C 7.851562 -38.160156 10.28125 -40.679688 13.375 -42.328125 C 16.46875 -43.984375 20.035156 -44.8125 24.078125 -44.8125 C 28.128906 -44.8125 31.695312 -43.988281 34.78125 -42.34375 C 37.863281 -40.707031 40.273438 -38.1875 42.015625 -34.78125 C 43.765625 -31.375 44.640625 -27.144531 44.640625 -22.09375 C 44.640625 -17.03125 43.765625 -12.796875 42.015625 -9.390625 C 40.273438 -5.992188 37.863281 -3.472656 34.78125 -1.828125 C 31.695312 -0.179688 28.128906 0.640625 24.078125 0.640625 Z M 24.078125 -6.953125 C 27.828125 -6.953125 30.6875 -8.15625 32.65625 -10.5625 C 34.632812 -12.96875 35.625 -16.8125 35.625 -22.09375 C 35.625 -27.375 34.632812 -31.222656 32.65625 -33.640625 C 30.6875 -36.054688 27.828125 -37.265625 24.078125 -37.265625 C 20.316406 -37.265625 17.441406 -36.054688 15.453125 -33.640625 C 13.472656 -31.222656 12.484375 -27.375 12.484375 -22.09375 C 12.484375 -16.8125 13.472656 -12.96875 15.453125 -10.5625 C 17.441406 -8.15625 20.316406 -6.953125 24.078125 -6.953125 Z M 24.078125 -6.953125 "/></g></g></g><g fill="#000000" fill-opacity="1"><g transform="translate(324.499801, 263.795282)"><g><path d="M 5.734375 0 L 5.734375 -44.1875 L 23.484375 -44.1875 C 28.054688 -44.1875 31.503906 -43.128906 33.828125 -41.015625 C 36.160156 -38.910156 37.328125 -36.007812 37.328125 -32.3125 C 37.328125 -29.625 36.644531 -27.425781 35.28125 -25.71875 C 33.914062 -24.007812 31.882812 -22.695312 29.1875 -21.78125 L 29.1875 -21.15625 C 30.582031 -20.550781 31.707031 -19.65625 32.5625 -18.46875 C 33.414062 -17.28125 34.226562 -15.515625 35 -13.171875 L 39.40625 0 L 30.4375 0 L 26.109375 -13.203125 C 25.660156 -14.535156 25.160156 -15.566406 24.609375 -16.296875 C 24.054688 -17.035156 23.351562 -17.570312 22.5 -17.90625 C 21.644531 -18.238281 20.53125 -18.40625 19.15625 -18.40625 L 14.46875 -18.40625 L 14.46875 0 Z M 22.421875 -25.328125 C 26.648438 -25.328125 28.765625 -27.300781 28.765625 -31.25 C 28.765625 -35.257812 26.648438 -37.265625 22.421875 -37.265625 L 14.46875 -37.265625 L 14.46875 -25.328125 Z M 22.421875 -25.328125 "/></g></g></g><g fill="#000000" fill-opacity="1"><g transform="translate(365.808478, 263.795282)"><g><path d="M 21.09375 0 L 11.328125 0 L 1.203125 -44.1875 L 9.90625 -44.1875 L 16.59375 -13.109375 L 17.34375 -13.109375 L 25.265625 -44.1875 L 32.734375 -44.1875 L 40.796875 -13.109375 L 41.546875 -13.109375 L 48.265625 -44.1875 L 56.65625 -44.1875 L 46.5625 0 L 36.78125 0 L 29.046875 -28.5 L 28.40625 -28.5 Z M 21.09375 0 "/></g></g></g><g fill="#000000" fill-opacity="1"><g transform="translate(423.646669, 263.795282)"><g><path d="M 42.40625 0 L 33.21875 0 L 29.890625 -10.1875 L 12.96875 -10.1875 L 9.640625 0 L 0.671875 0 L 15.921875 -44.1875 L 27.140625 -44.1875 Z M 21 -34.96875 L 15.328125 -17.53125 L 27.46875 -17.53125 L 21.765625 -34.96875 Z M 21 -34.96875 "/></g></g></g><g fill="#000000" fill-opacity="1"><g transform="translate(466.708006, 263.795282)"><g><path d="M 5.734375 0 L 5.734375 -44.1875 L 23.484375 -44.1875 C 28.054688 -44.1875 31.503906 -43.128906 33.828125 -41.015625 C 36.160156 -38.910156 37.328125 -36.007812 37.328125 -32.3125 C 37.328125 -29.625 36.644531 -27.425781 35.28125 -25.71875 C 33.914062 -24.007812 31.882812 -22.695312 29.1875 -21.78125 L 29.1875 -21.15625 C 30.582031 -20.550781 31.707031 -19.65625 32.5625 -18.46875 C 33.414062 -17.28125 34.226562 -15.515625 35 -13.171875 L 39.40625 0 L 30.4375 0 L 26.109375 -13.203125 C 25.660156 -14.535156 25.160156 -15.566406 24.609375 -16.296875 C 24.054688 -17.035156 23.351562 -17.570312 22.5 -17.90625 C 21.644531 -18.238281 20.53125 -18.40625 19.15625 -18.40625 L 14.46875 -18.40625 L 14.46875 0 Z M 22.421875 -25.328125 C 26.648438 -25.328125 28.765625 -27.300781 28.765625 -31.25 C 28.765625 -35.257812 26.648438 -37.265625 22.421875 -37.265625 L 14.46875 -37.265625 L 14.46875 -25.328125 Z M 22.421875 -25.328125 "/></g></g></g><g fill="#000000" fill-opacity="1"><g transform="translate(508.016695, 263.795282)"><g><path d="M 21.640625 -44.1875 C 28.804688 -44.1875 34.28125 -42.332031 38.0625 -38.625 C 41.84375 -34.914062 43.734375 -29.40625 43.734375 -22.09375 C 43.734375 -14.800781 41.84375 -9.296875 38.0625 -5.578125 C 34.28125 -1.859375 28.804688 0 21.640625 0 L 5.734375 0 L 5.734375 -44.1875 Z M 21.125 -7.34375 C 25.675781 -7.34375 29.078125 -8.503906 31.328125 -10.828125 C 33.585938 -13.160156 34.71875 -16.914062 34.71875 -22.09375 C 34.71875 -27.269531 33.585938 -31.019531 31.328125 -33.34375 C 29.078125 -35.675781 25.675781 -36.84375 21.125 -36.84375 L 14.46875 -36.84375 L 14.46875 -7.34375 Z M 21.125 -7.34375 "/></g></g></g><g fill="#000000" fill-opacity="1"><g transform="translate(360.321603, 392.232327)"><g><path d="M 24.140625 0.640625 C 20.078125 0.640625 16.492188 -0.203125 13.390625 -1.890625 C 10.285156 -3.585938 7.851562 -6.132812 6.09375 -9.53125 C 4.34375 -12.925781 3.46875 -17.113281 3.46875 -22.09375 C 3.46875 -27.070312 4.34375 -31.253906 6.09375 -34.640625 C 7.851562 -38.035156 10.285156 -40.578125 13.390625 -42.265625 C 16.492188 -43.960938 20.078125 -44.8125 24.140625 -44.8125 C 28.390625 -44.8125 32 -43.976562 34.96875 -42.3125 C 37.945312 -40.65625 40.070312 -38.125 41.34375 -34.71875 L 34.96875 -30.828125 L 34.203125 -30.859375 C 33.253906 -33.148438 31.96875 -34.796875 30.34375 -35.796875 C 28.726562 -36.796875 26.660156 -37.296875 24.140625 -37.296875 C 20.472656 -37.296875 17.613281 -36.082031 15.5625 -33.65625 C 13.507812 -31.226562 12.484375 -27.375 12.484375 -22.09375 C 12.484375 -16.832031 13.507812 -12.988281 15.5625 -10.5625 C 17.613281 -8.132812 20.472656 -6.921875 24.140625 -6.921875 C 29.890625 -6.921875 33.40625 -9.710938 34.6875 -15.296875 L 35.453125 -15.296875 L 41.890625 -11.9375 C 40.679688 -7.75 38.613281 -4.601562 35.6875 -2.5 C 32.769531 -0.40625 28.921875 0.640625 24.140625 0.640625 Z M 24.140625 0.640625 "/></g></g></g><g fill="#000000" fill-opacity="1"><g transform="translate(403.654919, 392.232327)"><g><path d="M 34.265625 -27.5625 L 34.265625 -44.1875 L 42.96875 -44.1875 L 42.96875 0 L 34.265625 0 L 34.265625 -20.125 L 14.46875 -20.125 L 14.46875 0 L 5.734375 0 L 5.734375 -44.1875 L 14.46875 -44.1875 L 14.46875 -27.5625 Z M 34.265625 -27.5625 "/></g></g></g><g fill="#000000" fill-opacity="1"><g transform="translate(452.397345, 392.232327)"><g><path d="M 42.40625 0 L 33.21875 0 L 29.890625 -10.1875 L 12.96875 -10.1875 L 9.640625 0 L 0.671875 0 L 15.921875 -44.1875 L 27.140625 -44.1875 Z M 21 -34.96875 L 15.328125 -17.53125 L 27.46875 -17.53125 L 21.765625 -34.96875 Z M 21 -34.96875 "/></g></g></g><g fill="#000000" fill-opacity="1"><g transform="translate(495.458694, 392.232327)"><g><path d="M 14.203125 0 L 5.734375 0 L 5.734375 -44.1875 L 15.75 -44.1875 L 33.484375 -15.71875 L 34.265625 -15.828125 L 34.265625 -44.1875 L 42.671875 -44.1875 L 42.671875 0 L 33.71875 0 L 14.953125 -30.40625 L 14.203125 -30.28125 Z M 14.203125 0 "/></g></g></g><g fill="#000000" fill-opacity="1"><g transform="translate(543.898934, 392.232327)"><g><path d="M 21.453125 0.640625 C 17.765625 0.640625 14.578125 -0.195312 11.890625 -1.875 C 9.203125 -3.5625 7.125 -6.101562 5.65625 -9.5 C 4.195312 -12.894531 3.46875 -17.09375 3.46875 -22.09375 C 3.46875 -27.125 4.34375 -31.335938 6.09375 -34.734375 C 7.851562 -38.128906 10.289062 -40.65625 13.40625 -42.3125 C 16.519531 -43.976562 20.128906 -44.8125 24.234375 -44.8125 C 28.460938 -44.8125 32.066406 -44.023438 35.046875 -42.453125 C 38.035156 -40.890625 40.132812 -38.554688 41.34375 -35.453125 L 34.96875 -31.578125 L 34.203125 -31.609375 C 33.296875 -33.585938 32.019531 -35.03125 30.375 -35.9375 C 28.738281 -36.84375 26.691406 -37.296875 24.234375 -37.296875 C 20.429688 -37.296875 17.519531 -36.085938 15.5 -33.671875 C 13.488281 -31.265625 12.484375 -27.40625 12.484375 -22.09375 C 12.484375 -16.75 13.421875 -12.867188 15.296875 -10.453125 C 17.179688 -8.035156 19.96875 -6.828125 23.65625 -6.828125 C 26.84375 -6.828125 29.191406 -7.539062 30.703125 -8.96875 C 32.210938 -10.40625 32.96875 -12.539062 32.96875 -15.375 L 32.96875 -17.28125 L 22.515625 -17.28125 L 22.515625 -24.390625 L 41.640625 -24.390625 L 41.640625 0 L 33.296875 0 L 33.296875 -5.921875 L 32.671875 -6.015625 C 31.765625 -3.898438 30.390625 -2.257812 28.546875 -1.09375 C 26.703125 0.0625 24.335938 0.640625 21.453125 0.640625 Z M 21.453125 0.640625 "/></g></g></g><g fill="#000000" fill-opacity="1"><g transform="translate(589.982133, 392.232327)"><g><path d="M 14.46875 -19.40625 L 14.46875 -7.3125 L 35.5625 -7.3125 L 35.5625 0 L 5.734375 0 L 5.734375 -44.1875 L 35.078125 -44.1875 L 35.078125 -36.875 L 14.46875 -36.875 L 14.46875 -26.53125 L 32.484375 -26.53125 L 32.484375 -19.40625 Z M 14.46875 -19.40625 "/></g></g></g><g fill="#000000" fill-opacity="1"><g transform="translate(215.998384, 215.851404)"><g><path d="M 11.859375 -24.234375 C 15.796875 -24.234375 18.800781 -23.210938 20.875 -21.171875 C 22.945312 -19.140625 23.984375 -16.117188 23.984375 -12.109375 C 23.984375 -8.109375 22.945312 -5.085938 20.875 -3.046875 C 18.800781 -1.015625 15.796875 0 11.859375 0 L 3.15625 0 L 3.15625 -24.234375 Z M 11.578125 -4.03125 C 14.078125 -4.03125 15.945312 -4.664062 17.1875 -5.9375 C 18.425781 -7.21875 19.046875 -9.273438 19.046875 -12.109375 C 19.046875 -14.953125 18.425781 -17.007812 17.1875 -18.28125 C 15.945312 -19.5625 14.078125 -20.203125 11.578125 -20.203125 L 7.9375 -20.203125 L 7.9375 -4.03125 Z M 11.578125 -4.03125 "/></g></g></g><g fill="#000000" fill-opacity="1"><g transform="translate(241.899823, 215.851404)"><g><path d="M 7.9375 -10.640625 L 7.9375 -4.015625 L 19.5 -4.015625 L 19.5 0 L 3.15625 0 L 3.15625 -24.234375 L 19.234375 -24.234375 L 19.234375 -20.21875 L 7.9375 -20.21875 L 7.9375 -14.546875 L 17.8125 -14.546875 L 17.8125 -10.640625 Z M 7.9375 -10.640625 "/></g></g></g><g fill="#000000" fill-opacity="1"><g transform="translate(262.730349, 215.851404)"><g><path d="M 10.734375 0.34375 C 9.054688 0.34375 7.5625 0.140625 6.25 -0.265625 C 4.945312 -0.679688 3.859375 -1.226562 2.984375 -1.90625 C 2.109375 -2.582031 1.441406 -3.320312 0.984375 -4.125 L 3.609375 -7.34375 L 4.03125 -7.34375 C 4.757812 -6.257812 5.679688 -5.394531 6.796875 -4.75 C 7.921875 -4.113281 9.234375 -3.796875 10.734375 -3.796875 C 12.015625 -3.796875 12.976562 -4.066406 13.625 -4.609375 C 14.28125 -5.148438 14.609375 -5.894531 14.609375 -6.84375 C 14.609375 -7.414062 14.503906 -7.894531 14.296875 -8.28125 C 14.085938 -8.664062 13.738281 -8.992188 13.25 -9.265625 C 12.769531 -9.546875 12.113281 -9.789062 11.28125 -10 L 8.171875 -10.703125 C 5.992188 -11.203125 4.367188 -12.023438 3.296875 -13.171875 C 2.234375 -14.328125 1.703125 -15.832031 1.703125 -17.6875 C 1.703125 -19.050781 2.046875 -20.25 2.734375 -21.28125 C 3.421875 -22.320312 4.414062 -23.128906 5.71875 -23.703125 C 7.03125 -24.285156 8.597656 -24.578125 10.421875 -24.578125 C 12.285156 -24.578125 13.882812 -24.328125 15.21875 -23.828125 C 16.550781 -23.335938 17.675781 -22.585938 18.59375 -21.578125 L 16.21875 -18.328125 L 15.8125 -18.328125 C 15.125 -19.046875 14.335938 -19.582031 13.453125 -19.9375 C 12.566406 -20.300781 11.554688 -20.484375 10.421875 -20.484375 C 9.109375 -20.484375 8.109375 -20.25 7.421875 -19.78125 C 6.734375 -19.320312 6.390625 -18.679688 6.390625 -17.859375 C 6.390625 -17.097656 6.628906 -16.488281 7.109375 -16.03125 C 7.597656 -15.582031 8.429688 -15.234375 9.609375 -14.984375 L 12.796875 -14.3125 C 15.148438 -13.820312 16.851562 -12.984375 17.90625 -11.796875 C 18.96875 -10.609375 19.5 -9.054688 19.5 -7.140625 C 19.5 -5.628906 19.171875 -4.3125 18.515625 -3.1875 C 17.867188 -2.070312 16.890625 -1.203125 15.578125 -0.578125 C 14.265625 0.0351562 12.648438 0.34375 10.734375 0.34375 Z M 10.734375 0.34375 "/></g></g></g><g fill="#000000" fill-opacity="1"><g transform="translate(283.544297, 215.851404)"><g><path d="M 7.9375 0 L 3.15625 0 L 3.15625 -24.234375 L 7.9375 -24.234375 Z M 7.9375 0 "/></g></g></g><g fill="#000000" fill-opacity="1"><g transform="translate(294.647279, 215.851404)"><g><path d="M 11.765625 0.34375 C 9.742188 0.34375 7.992188 -0.113281 6.515625 -1.03125 C 5.046875 -1.957031 3.910156 -3.347656 3.109375 -5.203125 C 2.304688 -7.066406 1.90625 -9.367188 1.90625 -12.109375 C 1.90625 -14.867188 2.382812 -17.179688 3.34375 -19.046875 C 4.300781 -20.910156 5.632812 -22.296875 7.34375 -23.203125 C 9.050781 -24.117188 11.035156 -24.578125 13.296875 -24.578125 C 15.609375 -24.578125 17.582031 -24.144531 19.21875 -23.28125 C 20.851562 -22.414062 22.003906 -21.132812 22.671875 -19.4375 L 19.171875 -17.3125 L 18.765625 -17.328125 C 18.265625 -18.410156 17.5625 -19.203125 16.65625 -19.703125 C 15.757812 -20.203125 14.640625 -20.453125 13.296875 -20.453125 C 11.203125 -20.453125 9.601562 -19.789062 8.5 -18.46875 C 7.394531 -17.144531 6.84375 -15.023438 6.84375 -12.109375 C 6.84375 -9.179688 7.359375 -7.054688 8.390625 -5.734375 C 9.421875 -4.410156 10.945312 -3.75 12.96875 -3.75 C 14.71875 -3.75 16.003906 -4.140625 16.828125 -4.921875 C 17.660156 -5.703125 18.078125 -6.875 18.078125 -8.4375 L 18.078125 -9.484375 L 12.34375 -9.484375 L 12.34375 -13.375 L 22.828125 -13.375 L 22.828125 0 L 18.265625 0 L 18.265625 -3.25 L 17.90625 -3.296875 C 17.414062 -2.140625 16.664062 -1.242188 15.65625 -0.609375 C 14.644531 0.0234375 13.347656 0.34375 11.765625 0.34375 Z M 11.765625 0.34375 "/></g></g></g><g fill="#000000" fill-opacity="1"><g transform="translate(319.918997, 215.851404)"><g><path d="M 7.78125 0 L 3.15625 0 L 3.15625 -24.234375 L 8.640625 -24.234375 L 18.359375 -8.609375 L 18.796875 -8.6875 L 18.796875 -24.234375 L 23.390625 -24.234375 L 23.390625 0 L 18.5 0 L 8.203125 -16.671875 L 7.78125 -16.609375 Z M 7.78125 0 "/></g></g></g><g fill="#000000" fill-opacity="1"><g transform="translate(100.380561, 277.22855)"><g><path d="M 9.53125 0 L 3.984375 0 L 3.984375 -30.640625 L 11.90625 -30.640625 L 19.65625 -8.109375 L 20.09375 -8.109375 L 27.8125 -30.640625 L 35.546875 -30.640625 L 35.546875 0 L 29.796875 0 L 29.796875 -20.25 L 29.28125 -20.328125 L 22.1875 0 L 17.140625 0 L 10.0625 -20.328125 L 9.53125 -20.25 Z M 9.53125 0 "/></g></g></g><g fill="#000000" fill-opacity="1"><g transform="translate(139.929676, 277.22855)"><g><path d="M 16.703125 0.4375 C 13.890625 0.4375 11.410156 -0.132812 9.265625 -1.28125 C 7.128906 -2.425781 5.453125 -4.175781 4.234375 -6.53125 C 3.015625 -8.882812 2.40625 -11.8125 2.40625 -15.3125 C 2.40625 -18.820312 3.015625 -21.753906 4.234375 -24.109375 C 5.453125 -26.460938 7.128906 -28.210938 9.265625 -29.359375 C 11.410156 -30.503906 13.890625 -31.078125 16.703125 -31.078125 C 19.515625 -31.078125 21.988281 -30.507812 24.125 -29.375 C 26.257812 -28.238281 27.929688 -26.488281 29.140625 -24.125 C 30.347656 -21.757812 30.953125 -18.820312 30.953125 -15.3125 C 30.953125 -11.8125 30.347656 -8.878906 29.140625 -6.515625 C 27.929688 -4.148438 26.257812 -2.398438 24.125 -1.265625 C 21.988281 -0.128906 19.515625 0.4375 16.703125 0.4375 Z M 16.703125 -4.828125 C 19.304688 -4.828125 21.289062 -5.660156 22.65625 -7.328125 C 24.019531 -8.992188 24.703125 -11.65625 24.703125 -15.3125 C 24.703125 -18.976562 24.019531 -21.648438 22.65625 -23.328125 C 21.289062 -25.003906 19.304688 -25.84375 16.703125 -25.84375 C 14.085938 -25.84375 12.09375 -25.003906 10.71875 -23.328125 C 9.34375 -21.648438 8.65625 -18.976562 8.65625 -15.3125 C 8.65625 -11.65625 9.34375 -8.992188 10.71875 -7.328125 C 12.09375 -5.660156 14.085938 -4.828125 16.703125 -4.828125 Z M 16.703125 -4.828125 "/></g></g></g><g fill="#000000" fill-opacity="1"><g transform="translate(173.316927, 277.22855)"><g><path d="M 18.21875 0 L 10.890625 0 L 0.546875 -30.640625 L 6.984375 -30.640625 L 14.421875 -7.796875 L 14.9375 -7.796875 L 22.28125 -30.640625 L 28.546875 -30.640625 Z M 18.21875 0 "/></g></g></g><g fill="#000000" fill-opacity="1"><g transform="translate(202.407634, 277.22855)"><g><path d="M 10.03125 -13.453125 L 10.03125 -5.078125 L 24.671875 -5.078125 L 24.671875 0 L 3.984375 0 L 3.984375 -30.640625 L 24.328125 -30.640625 L 24.328125 -25.5625 L 10.03125 -25.5625 L 10.03125 -18.40625 L 22.53125 -18.40625 L 22.53125 -13.453125 Z M 10.03125 -13.453125 "/></g></g></g><g fill="#000000" fill-opacity="1"><g transform="translate(339.934781, 344.150649)"><g><path d="M 3.15625 0 L 3.15625 -24.234375 L 13.484375 -24.234375 C 14.972656 -24.234375 16.234375 -23.992188 17.265625 -23.515625 C 18.304688 -23.046875 19.09375 -22.378906 19.625 -21.515625 C 20.15625 -20.648438 20.421875 -19.625 20.421875 -18.4375 C 20.421875 -17.375 20.160156 -16.429688 19.640625 -15.609375 C 19.117188 -14.796875 18.375 -14.140625 17.40625 -13.640625 L 17.40625 -13.296875 C 18.925781 -12.890625 20.097656 -12.160156 20.921875 -11.109375 C 21.753906 -10.066406 22.171875 -8.785156 22.171875 -7.265625 C 22.171875 -4.941406 21.472656 -3.148438 20.078125 -1.890625 C 18.679688 -0.628906 16.609375 0 13.859375 0 Z M 12.5 -14.5625 C 14.726562 -14.5625 15.84375 -15.566406 15.84375 -17.578125 C 15.84375 -18.609375 15.566406 -19.375 15.015625 -19.875 C 14.460938 -20.375 13.625 -20.625 12.5 -20.625 L 7.9375 -20.625 L 7.9375 -14.5625 Z M 13.375 -3.796875 C 16.007812 -3.796875 17.328125 -4.992188 17.328125 -7.390625 C 17.328125 -9.796875 16.007812 -11 13.375 -11 L 7.9375 -11 L 7.9375 -3.796875 Z M 13.375 -3.796875 "/></g></g></g><g fill="#000000" fill-opacity="1"><g transform="translate(363.63219, 344.150649)"><g><path d="M 7.9375 -10.640625 L 7.9375 -4.015625 L 19.5 -4.015625 L 19.5 0 L 3.15625 0 L 3.15625 -24.234375 L 19.234375 -24.234375 L 19.234375 -20.21875 L 7.9375 -20.21875 L 7.9375 -14.546875 L 17.8125 -14.546875 L 17.8125 -10.640625 Z M 7.9375 -10.640625 "/></g></g></g><g fill="#000000" fill-opacity="1"><g transform="translate(384.462716, 344.150649)"><g/></g></g><g fill="#000000" fill-opacity="1"><g transform="translate(392.466811, 344.150649)"><g><path d="M 13.203125 0.34375 C 10.984375 0.34375 9.023438 -0.109375 7.328125 -1.015625 C 5.628906 -1.921875 4.300781 -3.300781 3.34375 -5.15625 C 2.382812 -7.019531 1.90625 -9.335938 1.90625 -12.109375 C 1.90625 -14.878906 2.382812 -17.195312 3.34375 -19.0625 C 4.300781 -20.925781 5.628906 -22.3125 7.328125 -23.21875 C 9.023438 -24.125 10.984375 -24.578125 13.203125 -24.578125 C 15.421875 -24.578125 17.375 -24.125 19.0625 -23.21875 C 20.757812 -22.320312 22.082031 -20.9375 23.03125 -19.0625 C 23.988281 -17.195312 24.46875 -14.878906 24.46875 -12.109375 C 24.46875 -9.335938 23.988281 -7.019531 23.03125 -5.15625 C 22.082031 -3.289062 20.757812 -1.90625 19.0625 -1 C 17.375 -0.101562 15.421875 0.34375 13.203125 0.34375 Z M 13.203125 -3.8125 C 15.265625 -3.8125 16.832031 -4.46875 17.90625 -5.78125 C 18.988281 -7.101562 19.53125 -9.210938 19.53125 -12.109375 C 19.53125 -15.003906 18.988281 -17.113281 17.90625 -18.4375 C 16.832031 -19.769531 15.265625 -20.4375 13.203125 -20.4375 C 11.140625 -20.4375 9.5625 -19.769531 8.46875 -18.4375 C 7.382812 -17.113281 6.84375 -15.003906 6.84375 -12.109375 C 6.84375 -9.210938 7.382812 -7.101562 8.46875 -5.78125 C 9.5625 -4.46875 11.140625 -3.8125 13.203125 -3.8125 Z M 13.203125 -3.8125 "/></g></g></g><g fill="#000000" fill-opacity="1"><g transform="translate(418.865399, 344.150649)"><g><path d="M 12.515625 -24.234375 C 14.242188 -24.234375 15.722656 -23.914062 16.953125 -23.28125 C 18.191406 -22.644531 19.125 -21.753906 19.75 -20.609375 C 20.382812 -19.460938 20.703125 -18.132812 20.703125 -16.625 C 20.703125 -15.101562 20.382812 -13.773438 19.75 -12.640625 C 19.125 -11.503906 18.191406 -10.617188 16.953125 -9.984375 C 15.722656 -9.347656 14.242188 -9.03125 12.515625 -9.03125 L 7.9375 -9.03125 L 7.9375 0 L 3.15625 0 L 3.15625 -24.234375 Z M 11.875 -12.828125 C 14.539062 -12.828125 15.875 -14.09375 15.875 -16.625 C 15.875 -19.164062 14.539062 -20.4375 11.875 -20.4375 L 7.9375 -20.4375 L 7.9375 -12.828125 Z M 11.875 -12.828125 "/></g></g></g><g fill="#000000" fill-opacity="1"><g transform="translate(441.005076, 344.150649)"><g><path d="M 7.9375 -10.640625 L 7.9375 -4.015625 L 19.5 -4.015625 L 19.5 0 L 3.15625 0 L 3.15625 -24.234375 L 19.234375 -24.234375 L 19.234375 -20.21875 L 7.9375 -20.21875 L 7.9375 -14.546875 L 17.8125 -14.546875 L 17.8125 -10.640625 Z M 7.9375 -10.640625 "/></g></g></g><g fill="#000000" fill-opacity="1"><g transform="translate(461.835602, 344.150649)"><g><path d="M 7.78125 0 L 3.15625 0 L 3.15625 -24.234375 L 8.640625 -24.234375 L 18.359375 -8.609375 L 18.796875 -8.6875 L 18.796875 -24.234375 L 23.390625 -24.234375 L 23.390625 0 L 18.5 0 L 8.203125 -16.671875 L 7.78125 -16.609375 Z M 7.78125 0 "/></g></g></g><g fill="#000000" fill-opacity="1"><g transform="translate(197.526075, 417.061778)"><g><path d="M 16.75 0.4375 C 13.925781 0.4375 11.4375 -0.144531 9.28125 -1.3125 C 7.132812 -2.488281 5.453125 -4.253906 4.234375 -6.609375 C 3.015625 -8.960938 2.40625 -11.863281 2.40625 -15.3125 C 2.40625 -18.769531 3.015625 -21.675781 4.234375 -24.03125 C 5.453125 -26.382812 7.132812 -28.144531 9.28125 -29.3125 C 11.4375 -30.488281 13.925781 -31.078125 16.75 -31.078125 C 19.695312 -31.078125 22.195312 -30.5 24.25 -29.34375 C 26.3125 -28.195312 27.785156 -26.441406 28.671875 -24.078125 L 24.25 -21.375 L 23.71875 -21.390625 C 23.0625 -22.984375 22.171875 -24.125 21.046875 -24.8125 C 19.921875 -25.507812 18.488281 -25.859375 16.75 -25.859375 C 14.207031 -25.859375 12.222656 -25.015625 10.796875 -23.328125 C 9.367188 -21.648438 8.65625 -18.976562 8.65625 -15.3125 C 8.65625 -11.664062 9.367188 -9 10.796875 -7.3125 C 12.222656 -5.632812 14.207031 -4.796875 16.75 -4.796875 C 20.726562 -4.796875 23.164062 -6.734375 24.0625 -10.609375 L 24.578125 -10.609375 L 29.046875 -8.28125 C 28.210938 -5.375 26.78125 -3.191406 24.75 -1.734375 C 22.726562 -0.285156 20.0625 0.4375 16.75 0.4375 Z M 16.75 0.4375 "/></g></g></g><g fill="#000000" fill-opacity="1"><g transform="translate(227.580883, 417.061778)"><g><path d="M 3.984375 0 L 3.984375 -30.640625 L 16.28125 -30.640625 C 19.457031 -30.640625 21.851562 -29.910156 23.46875 -28.453125 C 25.082031 -26.992188 25.890625 -24.976562 25.890625 -22.40625 C 25.890625 -20.539062 25.414062 -19.015625 24.46875 -17.828125 C 23.519531 -16.640625 22.113281 -15.734375 20.25 -15.109375 L 20.25 -14.671875 C 21.207031 -14.253906 21.984375 -13.628906 22.578125 -12.796875 C 23.171875 -11.972656 23.734375 -10.753906 24.265625 -9.140625 L 27.328125 0 L 21.109375 0 L 18.109375 -9.15625 C 17.796875 -10.082031 17.445312 -10.800781 17.0625 -11.3125 C 16.6875 -11.820312 16.203125 -12.191406 15.609375 -12.421875 C 15.015625 -12.648438 14.238281 -12.765625 13.28125 -12.765625 L 10.03125 -12.765625 L 10.03125 0 Z M 15.546875 -17.5625 C 18.484375 -17.5625 19.953125 -18.929688 19.953125 -21.671875 C 19.953125 -24.453125 18.484375 -25.84375 15.546875 -25.84375 L 10.03125 -25.84375 L 10.03125 -17.5625 Z M 15.546875 -17.5625 "/></g></g></g><g fill="#000000" fill-opacity="1"><g transform="translate(256.231462, 417.061778)"><g><path d="M 10.03125 -13.453125 L 10.03125 -5.078125 L 24.671875 -5.078125 L 24.671875 0 L 3.984375 0 L 3.984375 -30.640625 L 24.328125 -30.640625 L 24.328125 -25.5625 L 10.03125 -25.5625 L 10.03125 -18.40625 L 22.53125 -18.40625 L 22.53125 -13.453125 Z M 10.03125 -13.453125 "/></g></g></g><g fill="#000000" fill-opacity="1"><g transform="translate(282.576582, 417.061778)"><g><path d="M 29.40625 0 L 23.03125 0 L 20.734375 -7.0625 L 8.984375 -7.0625 L 6.6875 0 L 0.46875 0 L 11.046875 -30.640625 L 18.8125 -30.640625 Z M 14.5625 -24.25 L 10.625 -12.15625 L 19.046875 -12.15625 L 15.09375 -24.25 Z M 14.5625 -24.25 "/></g></g></g><g fill="#000000" fill-opacity="1"><g transform="translate(312.442767, 417.061778)"><g><path d="M 24.5625 -30.640625 L 24.5625 -25.546875 L 15.71875 -25.546875 L 15.71875 0 L 9.6875 0 L 9.6875 -25.546875 L 0.84375 -25.546875 L 0.84375 -30.640625 Z M 24.5625 -30.640625 "/></g></g></g><g fill="#000000" fill-opacity="1"><g transform="translate(337.844739, 417.061778)"><g><path d="M 10.03125 -13.453125 L 10.03125 -5.078125 L 24.671875 -5.078125 L 24.671875 0 L 3.984375 0 L 3.984375 -30.640625 L 24.328125 -30.640625 L 24.328125 -25.5625 L 10.03125 -25.5625 L 10.03125 -18.40625 L 22.53125 -18.40625 L 22.53125 -13.453125 Z M 10.03125 -13.453125 "/></g></g></g><g fill="#000000" fill-opacity="1"><g transform="translate(300.0319, 187.495288)"><g><path d="M 14.109375 -17.59375 L 14.109375 -14.671875 L 9.03125 -14.671875 L 9.03125 0 L 5.5625 0 L 5.5625 -14.671875 L 0.484375 -14.671875 L 0.484375 -17.59375 Z M 14.109375 -17.59375 "/></g></g></g><g fill="#000000" fill-opacity="1"><g transform="translate(314.619514, 187.495288)"><g><path d="M 9.59375 0.25 C 7.976562 0.25 6.554688 -0.078125 5.328125 -0.734375 C 4.097656 -1.390625 3.132812 -2.394531 2.4375 -3.75 C 1.738281 -5.101562 1.390625 -6.785156 1.390625 -8.796875 C 1.390625 -10.816406 1.738281 -12.5 2.4375 -13.84375 C 3.132812 -15.195312 4.097656 -16.203125 5.328125 -16.859375 C 6.554688 -17.523438 7.976562 -17.859375 9.59375 -17.859375 C 11.207031 -17.859375 12.628906 -17.53125 13.859375 -16.875 C 15.085938 -16.21875 16.046875 -15.210938 16.734375 -13.859375 C 17.429688 -12.503906 17.78125 -10.816406 17.78125 -8.796875 C 17.78125 -6.785156 17.429688 -5.097656 16.734375 -3.734375 C 16.046875 -2.378906 15.085938 -1.375 13.859375 -0.71875 C 12.628906 -0.0703125 11.207031 0.25 9.59375 0.25 Z M 9.59375 -2.765625 C 11.082031 -2.765625 12.21875 -3.242188 13 -4.203125 C 13.789062 -5.160156 14.1875 -6.691406 14.1875 -8.796875 C 14.1875 -10.898438 13.789062 -12.429688 13 -13.390625 C 12.21875 -14.359375 11.082031 -14.84375 9.59375 -14.84375 C 8.09375 -14.84375 6.945312 -14.359375 6.15625 -13.390625 C 5.363281 -12.429688 4.96875 -10.898438 4.96875 -8.796875 C 4.96875 -6.691406 5.363281 -5.160156 6.15625 -4.203125 C 6.945312 -3.242188 8.09375 -2.765625 9.59375 -2.765625 Z M 9.59375 -2.765625 "/></g></g></g><g fill="#000000" fill-opacity="1"><g transform="translate(488.391566, 340.78135)"><g><path d="M 14.109375 -17.59375 L 14.109375 -14.671875 L 9.03125 -14.671875 L 9.03125 0 L 5.5625 0 L 5.5625 -14.671875 L 0.484375 -14.671875 L 0.484375 -17.59375 Z M 14.109375 -17.59375 "/></g></g></g><g fill="#000000" fill-opacity="1"><g transform="translate(502.97918, 340.78135)"><g><path d="M 9.59375 0.25 C 7.976562 0.25 6.554688 -0.078125 5.328125 -0.734375 C 4.097656 -1.390625 3.132812 -2.394531 2.4375 -3.75 C 1.738281 -5.101562 1.390625 -6.785156 1.390625 -8.796875 C 1.390625 -10.816406 1.738281 -12.5 2.4375 -13.84375 C 3.132812 -15.195312 4.097656 -16.203125 5.328125 -16.859375 C 6.554688 -17.523438 7.976562 -17.859375 9.59375 -17.859375 C 11.207031 -17.859375 12.628906 -17.53125 13.859375 -16.875 C 15.085938 -16.21875 16.046875 -15.210938 16.734375 -13.859375 C 17.429688 -12.503906 17.78125 -10.816406 17.78125 -8.796875 C 17.78125 -6.785156 17.429688 -5.097656 16.734375 -3.734375 C 16.046875 -2.378906 15.085938 -1.375 13.859375 -0.71875 C 12.628906 -0.0703125 11.207031 0.25 9.59375 0.25 Z M 9.59375 -2.765625 C 11.082031 -2.765625 12.21875 -3.242188 13 -4.203125 C 13.789062 -5.160156 14.1875 -6.691406 14.1875 -8.796875 C 14.1875 -10.898438 13.789062 -12.429688 13 -13.390625 C 12.21875 -14.359375 11.082031 -14.84375 9.59375 -14.84375 C 8.09375 -14.84375 6.945312 -14.359375 6.15625 -13.390625 C 5.363281 -12.429688 4.96875 -10.898438 4.96875 -8.796875 C 4.96875 -6.691406 5.363281 -5.160156 6.15625 -4.203125 C 6.945312 -3.242188 8.09375 -2.765625 9.59375 -2.765625 Z M 9.59375 -2.765625 "/></g></g></g><g fill="#000000" fill-opacity="1"><g transform="translate(344.510155, 316.965235)"><g><path d="M 14.140625 -17.640625 L 14.140625 -14.703125 L 9.046875 -14.703125 L 9.046875 0 L 5.578125 0 L 5.578125 -14.703125 L 0.484375 -14.703125 L 0.484375 -17.640625 Z M 14.140625 -17.640625 "/></g></g></g><g fill="#000000" fill-opacity="1"><g transform="translate(359.124953, 316.965235)"><g><path d="M 9.609375 0.25 C 7.992188 0.25 6.566406 -0.078125 5.328125 -0.734375 C 4.097656 -1.390625 3.132812 -2.394531 2.4375 -3.75 C 1.738281 -5.113281 1.390625 -6.800781 1.390625 -8.8125 C 1.390625 -10.832031 1.738281 -12.519531 2.4375 -13.875 C 3.132812 -15.226562 4.097656 -16.234375 5.328125 -16.890625 C 6.566406 -17.554688 7.992188 -17.890625 9.609375 -17.890625 C 11.222656 -17.890625 12.644531 -17.5625 13.875 -16.90625 C 15.113281 -16.25 16.078125 -15.238281 16.765625 -13.875 C 17.460938 -12.519531 17.8125 -10.832031 17.8125 -8.8125 C 17.8125 -6.800781 17.460938 -5.113281 16.765625 -3.75 C 16.078125 -2.394531 15.113281 -1.390625 13.875 -0.734375 C 12.644531 -0.078125 11.222656 0.25 9.609375 0.25 Z M 9.609375 -2.78125 C 11.109375 -2.78125 12.25 -3.257812 13.03125 -4.21875 C 13.820312 -5.175781 14.21875 -6.707031 14.21875 -8.8125 C 14.21875 -10.925781 13.820312 -12.460938 13.03125 -13.421875 C 12.25 -14.390625 11.109375 -14.875 9.609375 -14.875 C 8.109375 -14.875 6.960938 -14.390625 6.171875 -13.421875 C 5.378906 -12.460938 4.984375 -10.925781 4.984375 -8.8125 C 4.984375 -6.707031 5.378906 -5.175781 6.171875 -4.21875 C 6.960938 -3.257812 8.109375 -2.78125 9.609375 -2.78125 Z M 9.609375 -2.78125 "/></g></g></g><g fill="#000000" fill-opacity="1"><g transform="translate(202.322646, 382.200943)"><g><path d="M 11.71875 0 L 7.484375 0 L 7.484375 -8.390625 L 0.109375 -21.375 L 4.640625 -21.375 L 9.515625 -12.96875 L 9.890625 -12.96875 L 14.671875 -21.375 L 19.09375 -21.375 L 11.71875 -8.390625 Z M 11.71875 0 "/></g></g><g transform="translate(221.523555, 382.200943)"><g><path d="M 11.65625 0.3125 C 9.695312 0.3125 7.96875 -0.0859375 6.46875 -0.890625 C 4.976562 -1.691406 3.804688 -2.910156 2.953125 -4.546875 C 2.109375 -6.191406 1.6875 -8.238281 1.6875 -10.6875 C 1.6875 -13.132812 2.109375 -15.179688 2.953125 -16.828125 C 3.804688 -18.472656 4.976562 -19.691406 6.46875 -20.484375 C 7.96875 -21.285156 9.695312 -21.6875 11.65625 -21.6875 C 13.613281 -21.6875 15.335938 -21.289062 16.828125 -20.5 C 18.328125 -19.707031 19.5 -18.484375 20.34375 -16.828125 C 21.1875 -15.179688 21.609375 -13.132812 21.609375 -10.6875 C 21.609375 -8.238281 21.1875 -6.191406 20.34375 -4.546875 C 19.5 -2.898438 18.328125 -1.675781 16.828125 -0.875 C 15.335938 -0.0820312 13.613281 0.3125 11.65625 0.3125 Z M 11.65625 -3.359375 C 13.46875 -3.359375 14.851562 -3.941406 15.8125 -5.109375 C 16.769531 -6.273438 17.25 -8.132812 17.25 -10.6875 C 17.25 -13.238281 16.769531 -15.097656 15.8125 -16.265625 C 14.851562 -17.441406 13.46875 -18.03125 11.65625 -18.03125 C 9.832031 -18.03125 8.441406 -17.441406 7.484375 -16.265625 C 6.523438 -15.097656 6.046875 -13.238281 6.046875 -10.6875 C 6.046875 -8.132812 6.523438 -6.273438 7.484375 -5.109375 C 8.441406 -3.941406 9.832031 -3.359375 11.65625 -3.359375 Z M 11.65625 -3.359375 "/></g></g><g transform="translate(244.819098, 382.200943)"><g><path d="M 11.328125 0.3125 C 8.390625 0.3125 6.207031 -0.382812 4.78125 -1.78125 C 3.351562 -3.1875 2.640625 -5.265625 2.640625 -8.015625 L 2.640625 -21.375 L 6.78125 -21.375 L 6.78125 -8.046875 C 6.78125 -6.484375 7.15625 -5.3125 7.90625 -4.53125 C 8.65625 -3.75 9.796875 -3.359375 11.328125 -3.359375 C 14.367188 -3.359375 15.890625 -4.921875 15.890625 -8.046875 L 15.890625 -21.375 L 20.015625 -21.375 L 20.015625 -8.015625 C 20.015625 -5.265625 19.300781 -3.1875 17.875 -1.78125 C 16.457031 -0.382812 14.273438 0.3125 11.328125 0.3125 Z M 11.328125 0.3125 "/></g></g><g transform="translate(267.485822, 382.200943)"><g/></g><g transform="translate(274.549066, 382.200943)"><g><path d="M 6.65625 0 L 2.78125 0 L 2.78125 -21.375 L 8.3125 -21.375 L 13.71875 -5.65625 L 14.03125 -5.65625 L 19.40625 -21.375 L 24.8125 -21.375 L 24.8125 0 L 20.796875 0 L 20.796875 -14.125 L 20.4375 -14.1875 L 15.484375 0 L 11.96875 0 L 7.015625 -14.1875 L 6.65625 -14.125 Z M 6.65625 0 "/></g></g><g transform="translate(302.143975, 382.200943)"><g><path d="M 11.328125 0.3125 C 8.390625 0.3125 6.207031 -0.382812 4.78125 -1.78125 C 3.351562 -3.1875 2.640625 -5.265625 2.640625 -8.015625 L 2.640625 -21.375 L 6.78125 -21.375 L 6.78125 -8.046875 C 6.78125 -6.484375 7.15625 -5.3125 7.90625 -4.53125 C 8.65625 -3.75 9.796875 -3.359375 11.328125 -3.359375 C 14.367188 -3.359375 15.890625 -4.921875 15.890625 -8.046875 L 15.890625 -21.375 L 20.015625 -21.375 L 20.015625 -8.015625 C 20.015625 -5.265625 19.300781 -3.1875 17.875 -1.78125 C 16.457031 -0.382812 14.273438 0.3125 11.328125 0.3125 Z M 11.328125 0.3125 "/></g></g><g transform="translate(324.810699, 382.200943)"><g><path d="M 9.484375 0.3125 C 7.992188 0.3125 6.671875 0.128906 5.515625 -0.234375 C 4.359375 -0.609375 3.394531 -1.09375 2.625 -1.6875 C 1.863281 -2.28125 1.273438 -2.929688 0.859375 -3.640625 L 3.1875 -6.484375 L 3.546875 -6.484375 C 4.191406 -5.523438 5.007812 -4.757812 6 -4.1875 C 6.988281 -3.625 8.148438 -3.34375 9.484375 -3.34375 C 10.609375 -3.34375 11.457031 -3.582031 12.03125 -4.0625 C 12.613281 -4.539062 12.90625 -5.203125 12.90625 -6.046875 C 12.90625 -6.546875 12.8125 -6.96875 12.625 -7.3125 C 12.4375 -7.65625 12.128906 -7.945312 11.703125 -8.1875 C 11.273438 -8.4375 10.691406 -8.644531 9.953125 -8.8125 L 7.203125 -9.453125 C 5.285156 -9.890625 3.851562 -10.613281 2.90625 -11.625 C 1.96875 -12.644531 1.5 -13.972656 1.5 -15.609375 C 1.5 -16.816406 1.800781 -17.878906 2.40625 -18.796875 C 3.007812 -19.710938 3.890625 -20.421875 5.046875 -20.921875 C 6.203125 -21.429688 7.585938 -21.6875 9.203125 -21.6875 C 10.847656 -21.6875 12.257812 -21.46875 13.4375 -21.03125 C 14.613281 -20.601562 15.601562 -19.941406 16.40625 -19.046875 L 14.3125 -16.171875 L 13.953125 -16.171875 C 13.347656 -16.804688 12.65625 -17.28125 11.875 -17.59375 C 11.09375 -17.914062 10.203125 -18.078125 9.203125 -18.078125 C 8.035156 -18.078125 7.148438 -17.867188 6.546875 -17.453125 C 5.941406 -17.046875 5.640625 -16.484375 5.640625 -15.765625 C 5.640625 -15.085938 5.851562 -14.550781 6.28125 -14.15625 C 6.707031 -13.757812 7.441406 -13.445312 8.484375 -13.21875 L 11.296875 -12.640625 C 13.367188 -12.203125 14.875 -11.457031 15.8125 -10.40625 C 16.75 -9.351562 17.21875 -7.984375 17.21875 -6.296875 C 17.21875 -4.960938 16.925781 -3.800781 16.34375 -2.8125 C 15.769531 -1.820312 14.898438 -1.050781 13.734375 -0.5 C 12.578125 0.0390625 11.160156 0.3125 9.484375 0.3125 Z M 9.484375 0.3125 "/></g></g><g transform="translate(343.178057, 382.200943)"><g><path d="M 17.140625 -21.375 L 17.140625 -17.828125 L 10.96875 -17.828125 L 10.96875 0 L 6.75 0 L 6.75 -17.828125 L 0.578125 -17.828125 L 0.578125 -21.375 Z M 17.140625 -21.375 "/></g></g></g><g fill="#000000" fill-opacity="1"><g transform="translate(85.277207, 242.569154)"><g><path d="M 11.71875 0 L 7.484375 0 L 7.484375 -8.390625 L 0.109375 -21.375 L 4.640625 -21.375 L 9.515625 -12.96875 L 9.890625 -12.96875 L 14.671875 -21.375 L 19.09375 -21.375 L 11.71875 -8.390625 Z M 11.71875 0 "/></g></g><g transform="translate(104.478116, 242.569154)"><g><path d="M 11.65625 0.3125 C 9.695312 0.3125 7.96875 -0.0859375 6.46875 -0.890625 C 4.976562 -1.691406 3.804688 -2.910156 2.953125 -4.546875 C 2.109375 -6.191406 1.6875 -8.238281 1.6875 -10.6875 C 1.6875 -13.132812 2.109375 -15.179688 2.953125 -16.828125 C 3.804688 -18.472656 4.976562 -19.691406 6.46875 -20.484375 C 7.96875 -21.285156 9.695312 -21.6875 11.65625 -21.6875 C 13.613281 -21.6875 15.335938 -21.289062 16.828125 -20.5 C 18.328125 -19.707031 19.5 -18.484375 20.34375 -16.828125 C 21.1875 -15.179688 21.609375 -13.132812 21.609375 -10.6875 C 21.609375 -8.238281 21.1875 -6.191406 20.34375 -4.546875 C 19.5 -2.898438 18.328125 -1.675781 16.828125 -0.875 C 15.335938 -0.0820312 13.613281 0.3125 11.65625 0.3125 Z M 11.65625 -3.359375 C 13.46875 -3.359375 14.851562 -3.941406 15.8125 -5.109375 C 16.769531 -6.273438 17.25 -8.132812 17.25 -10.6875 C 17.25 -13.238281 16.769531 -15.097656 15.8125 -16.265625 C 14.851562 -17.441406 13.46875 -18.03125 11.65625 -18.03125 C 9.832031 -18.03125 8.441406 -17.441406 7.484375 -16.265625 C 6.523438 -15.097656 6.046875 -13.238281 6.046875 -10.6875 C 6.046875 -8.132812 6.523438 -6.273438 7.484375 -5.109375 C 8.441406 -3.941406 9.832031 -3.359375 11.65625 -3.359375 Z M 11.65625 -3.359375 "/></g></g><g transform="translate(127.773659, 242.569154)"><g><path d="M 11.328125 0.3125 C 8.390625 0.3125 6.207031 -0.382812 4.78125 -1.78125 C 3.351562 -3.1875 2.640625 -5.265625 2.640625 -8.015625 L 2.640625 -21.375 L 6.78125 -21.375 L 6.78125 -8.046875 C 6.78125 -6.484375 7.15625 -5.3125 7.90625 -4.53125 C 8.65625 -3.75 9.796875 -3.359375 11.328125 -3.359375 C 14.367188 -3.359375 15.890625 -4.921875 15.890625 -8.046875 L 15.890625 -21.375 L 20.015625 -21.375 L 20.015625 -8.015625 C 20.015625 -5.265625 19.300781 -3.1875 17.875 -1.78125 C 16.457031 -0.382812 14.273438 0.3125 11.328125 0.3125 Z M 11.328125 0.3125 "/></g></g><g transform="translate(150.440383, 242.569154)"><g/></g><g transform="translate(157.503626, 242.569154)"><g><path d="M 6.65625 0 L 2.78125 0 L 2.78125 -21.375 L 8.3125 -21.375 L 13.71875 -5.65625 L 14.03125 -5.65625 L 19.40625 -21.375 L 24.8125 -21.375 L 24.8125 0 L 20.796875 0 L 20.796875 -14.125 L 20.4375 -14.1875 L 15.484375 0 L 11.96875 0 L 7.015625 -14.1875 L 6.65625 -14.125 Z M 6.65625 0 "/></g></g><g transform="translate(185.098535, 242.569154)"><g><path d="M 11.328125 0.3125 C 8.390625 0.3125 6.207031 -0.382812 4.78125 -1.78125 C 3.351562 -3.1875 2.640625 -5.265625 2.640625 -8.015625 L 2.640625 -21.375 L 6.78125 -21.375 L 6.78125 -8.046875 C 6.78125 -6.484375 7.15625 -5.3125 7.90625 -4.53125 C 8.65625 -3.75 9.796875 -3.359375 11.328125 -3.359375 C 14.367188 -3.359375 15.890625 -4.921875 15.890625 -8.046875 L 15.890625 -21.375 L 20.015625 -21.375 L 20.015625 -8.015625 C 20.015625 -5.265625 19.300781 -3.1875 17.875 -1.78125 C 16.457031 -0.382812 14.273438 0.3125 11.328125 0.3125 Z M 11.328125 0.3125 "/></g></g><g transform="translate(207.765259, 242.569154)"><g><path d="M 9.484375 0.3125 C 7.992188 0.3125 6.671875 0.128906 5.515625 -0.234375 C 4.359375 -0.609375 3.394531 -1.09375 2.625 -1.6875 C 1.863281 -2.28125 1.273438 -2.929688 0.859375 -3.640625 L 3.1875 -6.484375 L 3.546875 -6.484375 C 4.191406 -5.523438 5.007812 -4.757812 6 -4.1875 C 6.988281 -3.625 8.148438 -3.34375 9.484375 -3.34375 C 10.609375 -3.34375 11.457031 -3.582031 12.03125 -4.0625 C 12.613281 -4.539062 12.90625 -5.203125 12.90625 -6.046875 C 12.90625 -6.546875 12.8125 -6.96875 12.625 -7.3125 C 12.4375 -7.65625 12.128906 -7.945312 11.703125 -8.1875 C 11.273438 -8.4375 10.691406 -8.644531 9.953125 -8.8125 L 7.203125 -9.453125 C 5.285156 -9.890625 3.851562 -10.613281 2.90625 -11.625 C 1.96875 -12.644531 1.5 -13.972656 1.5 -15.609375 C 1.5 -16.816406 1.800781 -17.878906 2.40625 -18.796875 C 3.007812 -19.710938 3.890625 -20.421875 5.046875 -20.921875 C 6.203125 -21.429688 7.585938 -21.6875 9.203125 -21.6875 C 10.847656 -21.6875 12.257812 -21.46875 13.4375 -21.03125 C 14.613281 -20.601562 15.601562 -19.941406 16.40625 -19.046875 L 14.3125 -16.171875 L 13.953125 -16.171875 C 13.347656 -16.804688 12.65625 -17.28125 11.875 -17.59375 C 11.09375 -17.914062 10.203125 -18.078125 9.203125 -18.078125 C 8.035156 -18.078125 7.148438 -17.867188 6.546875 -17.453125 C 5.941406 -17.046875 5.640625 -16.484375 5.640625 -15.765625 C 5.640625 -15.085938 5.851562 -14.550781 6.28125 -14.15625 C 6.707031 -13.757812 7.441406 -13.445312 8.484375 -13.21875 L 11.296875 -12.640625 C 13.367188 -12.203125 14.875 -11.457031 15.8125 -10.40625 C 16.75 -9.351562 17.21875 -7.984375 17.21875 -6.296875 C 17.21875 -4.960938 16.925781 -3.800781 16.34375 -2.8125 C 15.769531 -1.820312 14.898438 -1.050781 13.734375 -0.5 C 12.578125 0.0390625 11.160156 0.3125 9.484375 0.3125 Z M 9.484375 0.3125 "/></g></g><g transform="translate(226.132618, 242.569154)"><g><path d="M 17.140625 -21.375 L 17.140625 -17.828125 L 10.96875 -17.828125 L 10.96875 0 L 6.75 0 L 6.75 -17.828125 L 0.578125 -17.828125 L 0.578125 -21.375 Z M 17.140625 -21.375 "/></g></g></g></svg>